<?xml version="1.0" encoding="utf-8"?>
<!-- Generator: Adobe Illustrator 25.0.0, SVG Export Plug-In . SVG Version: 6.00 Build 0)  -->
<svg version="1.1" id="Layer_1" xmlns="http://www.w3.org/2000/svg" xmlns:xlink="http://www.w3.org/1999/xlink" x="0px" y="0px"
	 viewBox="0 0 450 450" style="enable-background:new 0 0 450 450;" xml:space="preserve">
<style type="text/css">
	.st0{fill:#729055;}
	.st1{fill:#C6D272;}
	.st2{fill:#F2E175;}
	.st3{fill:#DAB55A;}
	.st4{fill:#C38C49;}
	.st5{fill:#372D2A;}
	.st6{fill:#2D2522;}
	.st7{fill:#7A6662;}
	.st8{fill:#5F4F49;}
	.st9{fill:#86C3C2;}
	.st10{fill:#395D60;}
	.st11{fill:#C8C8C8;}
	.st12{fill:#35908F;}
	.st13{fill:#F1F1F1;}
	.st14{fill:#211A1A;}
	.st15{fill:#ACA69F;}
	.st16{fill:#F6993B;}
	.st17{fill:#153C53;}
	.st18{fill:#61BEDC;}
	.st19{opacity:0.3;}
	.st20{fill:#E7BEAD;}
	.st21{fill:#F1594F;}
	.st22{fill:#D9CCBD;}
	.st23{fill:#A38150;}
	.st24{fill:#265A74;}
	.st25{fill:#3F89AF;}
	.st26{fill:#0A0808;}
	.st27{fill:#BE9C8E;}
</style>
<g>
	<g>
		<g>
			<polygon class="st0" points="225,405 56.72,307.85 56.72,303.06 75.11,307.58 393.28,303.05 393.28,307.84 			"/>
			<polygon class="st1" points="225,400.22 56.72,303.06 225,205.9 393.28,303.05 			"/>
		</g>
		<g>
			<g>
				<polygon class="st2" points="333.07,271.68 344.73,278.42 356.83,271.44 345.16,264.69 				"/>
				<polygon class="st3" points="333.07,282.44 344.73,289.18 344.73,278.42 333.07,271.68 				"/>
				<polygon class="st4" points="344.73,278.42 356.83,271.44 356.83,282.21 344.73,289.18 				"/>
			</g>
			<g>
				<polygon class="st2" points="312.01,259.49 323.68,266.23 335.77,259.24 324.11,252.51 				"/>
				<polygon class="st3" points="312.01,270.26 323.68,277 323.68,266.23 312.01,259.49 				"/>
				<polygon class="st4" points="323.68,266.23 335.77,259.24 335.77,270.01 323.68,277 				"/>
			</g>
			<g>
				<polygon class="st2" points="290.96,247.31 302.6,254.04 314.71,247.06 303.05,240.32 				"/>
				<polygon class="st3" points="290.96,258.07 302.6,264.8 302.6,254.04 290.96,247.31 				"/>
				<polygon class="st4" points="302.6,254.04 314.71,247.06 314.71,257.83 302.6,264.8 				"/>
			</g>
			<g>
				<polygon class="st2" points="269.87,235.11 281.55,241.85 293.65,234.86 281.97,228.12 				"/>
				<polygon class="st3" points="269.87,245.87 281.55,252.62 281.55,241.85 269.87,235.11 				"/>
				<polygon class="st4" points="281.55,241.85 293.65,234.86 293.65,245.64 281.55,252.62 				"/>
			</g>
			<g>
				<polygon class="st2" points="248.83,222.91 260.48,229.67 272.58,222.68 260.92,215.93 				"/>
				<polygon class="st3" points="248.83,233.69 260.48,240.42 260.48,229.67 248.83,222.91 				"/>
				<polygon class="st4" points="260.48,229.67 272.58,222.68 272.58,233.44 260.48,240.42 				"/>
			</g>
		</g>
		<g>
			<g>
				<polygon class="st2" points="116.6,272.11 104.94,278.84 92.83,271.85 104.49,265.11 				"/>
				<polygon class="st4" points="116.6,282.87 104.94,289.6 104.94,278.84 116.6,272.11 				"/>
				<polygon class="st3" points="104.94,278.84 92.83,271.85 92.83,282.62 104.94,289.6 				"/>
			</g>
			<g>
				<polygon class="st2" points="138.01,259.76 126.35,266.5 114.24,259.52 125.9,252.78 				"/>
				<polygon class="st4" points="138.01,270.54 126.35,277.26 126.35,266.5 138.01,259.76 				"/>
				<polygon class="st3" points="126.35,266.5 114.24,259.52 114.24,270.28 126.35,277.26 				"/>
			</g>
			<g>
				<polygon class="st2" points="159.41,247.42 147.75,254.17 135.65,247.17 147.32,240.43 				"/>
				<polygon class="st4" points="159.41,258.2 147.75,264.93 147.75,254.17 159.41,247.42 				"/>
				<polygon class="st3" points="147.75,254.17 135.65,247.17 135.65,257.94 147.75,264.93 				"/>
			</g>
			<g>
				<polygon class="st2" points="180.81,235.09 169.16,241.83 157.06,234.84 168.72,228.1 				"/>
				<polygon class="st4" points="180.81,245.85 169.16,252.61 169.16,241.83 180.81,235.09 				"/>
				<polygon class="st3" points="169.16,241.83 157.06,234.84 157.06,245.62 169.16,252.61 				"/>
			</g>
			<g>
				<polygon class="st2" points="202.22,222.76 190.56,229.49 178.46,222.51 190.13,215.76 				"/>
				<polygon class="st4" points="202.22,233.51 190.56,240.27 190.56,229.49 202.22,222.76 				"/>
				<polygon class="st3" points="190.56,229.49 178.46,222.51 178.46,233.27 190.56,240.27 				"/>
			</g>
		</g>
		<g>
			<polygon class="st5" points="245.32,374.22 204.61,374.22 192.18,353.9 226.78,340.33 260.58,354.18 			"/>
			<polygon class="st6" points="348.32,314.75 245.32,374.22 245.32,358.22 288.28,317.62 348.32,298.75 			"/>
			<polygon class="st7" points="348.32,298.75 348.32,275.25 245.52,215.91 204.82,215.91 101.82,275.38 101.82,298.89 
				204.61,358.22 245.32,358.22 			"/>
			<polygon class="st8" points="204.61,374.22 101.82,314.88 101.82,298.89 204.61,358.22 			"/>
		</g>
		<g>
			<g>
				<polygon class="st2" points="272.1,361.88 260.44,368.61 248.34,361.64 260,354.88 				"/>
				<polygon class="st4" points="272.1,372.64 260.44,379.37 260.44,368.61 272.1,361.88 				"/>
				<polygon class="st3" points="260.44,368.61 248.34,361.64 248.34,372.39 260.44,379.37 				"/>
			</g>
			<g>
				<polygon class="st2" points="293.51,349.55 281.84,356.29 269.74,349.29 281.41,342.55 				"/>
				<polygon class="st4" points="293.51,360.3 281.84,367.04 281.84,356.29 293.51,349.55 				"/>
				<polygon class="st3" points="281.84,356.29 269.74,349.29 269.74,360.07 281.84,367.04 				"/>
			</g>
			<g>
				<polygon class="st2" points="314.92,337.2 303.25,343.95 291.14,336.96 302.82,330.22 				"/>
				<polygon class="st4" points="314.92,347.97 303.25,354.71 303.25,343.95 314.92,337.2 				"/>
				<polygon class="st3" points="303.25,343.95 291.14,336.96 291.14,347.73 303.25,354.71 				"/>
			</g>
			<g>
				<polygon class="st2" points="336.32,324.88 324.66,331.62 312.57,324.62 324.22,317.88 				"/>
				<polygon class="st4" points="336.32,335.64 324.66,342.38 324.66,331.62 336.32,324.88 				"/>
				<polygon class="st3" points="324.66,331.62 312.57,324.62 312.57,335.39 324.66,342.38 				"/>
			</g>
			<g>
				<polygon class="st2" points="357.71,312.53 346.07,319.27 333.96,312.29 345.62,305.55 				"/>
				<polygon class="st4" points="357.71,323.31 346.07,330.05 346.07,319.27 357.71,312.53 				"/>
				<polygon class="st3" points="346.07,319.27 333.96,312.29 333.96,323.04 346.07,330.05 				"/>
			</g>
		</g>
		<g>
			<g>
				<polygon class="st2" points="177.26,361.64 188.93,368.37 201.02,361.39 189.36,354.65 				"/>
				<polygon class="st3" points="177.26,372.4 188.93,379.14 188.93,368.37 177.26,361.64 				"/>
				<polygon class="st4" points="188.93,368.37 201.02,361.39 201.02,372.16 188.93,379.14 				"/>
			</g>
			<g>
				<polygon class="st2" points="156.21,349.45 167.86,356.19 179.96,349.19 168.3,342.45 				"/>
				<polygon class="st3" points="156.21,360.21 167.86,366.95 167.86,356.19 156.21,349.45 				"/>
				<polygon class="st4" points="167.86,356.19 179.96,349.19 179.96,359.97 167.86,366.95 				"/>
			</g>
			<g>
				<polygon class="st2" points="135.14,337.26 146.81,343.99 158.91,337 147.23,330.26 				"/>
				<polygon class="st3" points="135.14,348.02 146.81,354.76 146.81,343.99 135.14,337.26 				"/>
				<polygon class="st4" points="146.81,343.99 158.91,337 158.91,347.78 146.81,354.76 				"/>
			</g>
			<g>
				<polygon class="st2" points="114.08,325.06 125.74,331.8 137.84,324.83 126.17,318.08 				"/>
				<polygon class="st3" points="114.08,335.83 125.74,342.57 125.74,331.8 114.08,325.06 				"/>
				<polygon class="st4" points="125.74,331.8 137.84,324.83 137.84,335.58 125.74,342.57 				"/>
			</g>
			<g>
				<polygon class="st2" points="93.01,312.87 104.67,319.61 116.79,312.62 105.1,305.88 				"/>
				<polygon class="st3" points="93.01,323.64 104.67,330.38 104.67,319.61 93.01,312.87 				"/>
				<polygon class="st4" points="104.67,319.61 116.79,312.62 116.79,323.4 104.67,330.38 				"/>
			</g>
		</g>
	</g>
	<g>
		<polygon class="st9" points="210.5,145.48 207.35,147.31 95.22,82.56 98.37,80.75 		"/>
		<polygon class="st10" points="210.5,156.71 207.35,158.54 207.35,147.31 210.5,145.48 		"/>
		<polygon class="st11" points="210.5,231.92 207.35,233.74 207.35,158.54 210.5,156.71 		"/>
		<polygon class="st12" points="207.35,147.31 95.22,82.56 95.22,93.79 207.35,158.54 		"/>
		<polygon class="st13" points="95.22,169.01 207.35,233.74 207.35,158.54 95.22,93.79 		"/>
		<polygon class="st14" points="101.85,105 101.85,166.21 200.72,223.33 200.72,162.12 		"/>
		<g>
			<polygon class="st15" points="112.99,118.56 107.78,115.55 107.78,112.59 112.99,115.6 			"/>
			<polygon class="st13" points="131.74,129.39 116.64,120.67 116.64,117.7 131.74,126.42 			"/>
			<polygon class="st13" points="126.22,140.43 111.11,131.71 111.11,128.74 126.22,137.47 			"/>
			<polygon class="st9" points="116.64,142.01 111.11,138.82 111.11,135.85 116.64,139.05 			"/>
			<polygon class="st9" points="135.82,153.09 121.71,144.94 121.71,141.97 135.82,150.12 			"/>
			<polygon class="st9" points="148.74,160.54 143.46,157.5 143.46,154.54 148.74,157.58 			"/>
			<polygon class="st15" points="140.52,155.79 137.89,154.28 137.89,151.32 140.52,152.83 			"/>
			<polygon class="st15" points="120.58,144.29 117.95,142.77 117.94,139.8 120.58,141.32 			"/>
			<polygon class="st9" points="116.64,149.13 111.11,145.93 111.11,142.97 116.64,146.16 			"/>
			<polygon class="st9" points="114.63,155.07 111.11,153.05 111.11,150.08 114.63,152.11 			"/>
			<polygon class="st13" points="141.47,170.57 120.19,158.29 120.19,155.33 141.47,167.61 			"/>
			<polygon class="st13" points="128.77,170.69 111.07,160.48 111.07,157.51 128.77,167.72 			"/>
			<polygon class="st9" points="142.2,178.46 131.04,172.01 131.04,169.04 142.2,175.49 			"/>
			<polygon class="st9" points="190.17,206.14 176.51,198.26 176.51,195.29 190.17,203.18 			"/>
			<polygon class="st15" points="149.61,182.73 145.04,180.09 145.04,177.12 149.61,179.76 			"/>
			<polygon class="st16" points="172.94,196.19 155.29,186.01 155.29,183.04 172.94,193.22 			"/>
			<polygon class="st9" points="164.74,184.01 143.46,171.73 143.46,168.76 164.74,181.05 			"/>
			<polygon class="st9" points="135.82,160.2 121.71,152.05 121.71,149.09 135.82,157.24 			"/>
			<polygon class="st9" points="148.74,167.66 143.46,164.61 143.46,161.65 148.74,164.69 			"/>
			<polygon class="st15" points="140.52,162.91 137.89,161.39 137.89,158.43 140.52,159.94 			"/>
			<polygon class="st15" points="120.58,151.4 117.95,149.87 117.94,146.91 120.58,148.44 			"/>
			<polygon class="st15" points="118.67,157.41 116.03,155.88 116.03,152.92 118.67,154.45 			"/>
			<polygon class="st9" points="143.66,150.49 128.54,141.76 128.54,138.79 143.66,147.52 			"/>
			<polygon class="st9" points="157.57,158.53 148,153 148,150.03 157.57,155.56 			"/>
			<polygon class="st9" points="174.33,168.21 159.91,159.88 159.91,156.91 174.33,165.24 			"/>
			<polygon class="st9" points="187.68,175.91 179.13,170.97 179.13,168.01 187.68,172.94 			"/>
			<polygon class="st9" points="151.21,140.63 136.09,131.9 136.09,128.93 151.21,137.66 			"/>
			<polygon class="st15" points="109.08,123.41 107.78,122.65 107.78,119.69 109.08,120.44 			"/>
			<polygon class="st15" points="109.08,166.54 107.78,165.79 107.78,162.82 109.08,163.57 			"/>
		</g>
	</g>
	<g>
		<polygon class="st9" points="321.36,149.89 318.22,151.72 206.08,86.97 209.23,85.15 		"/>
		<polygon class="st10" points="321.36,161.1 318.22,162.93 318.22,151.72 321.36,149.89 		"/>
		<polygon class="st11" points="321.36,236.33 318.22,238.14 318.22,162.93 321.36,161.1 		"/>
		<polygon class="st12" points="318.22,151.72 206.08,86.97 206.08,98.18 318.22,162.93 		"/>
		<polygon class="st13" points="206.08,173.4 318.22,238.14 318.22,162.93 206.08,98.18 		"/>
		<polygon class="st14" points="212.72,109.4 212.72,170.62 311.58,227.74 311.58,166.52 		"/>
		<g>
			<polygon class="st15" points="223.86,122.96 218.66,119.96 218.66,116.99 223.86,120 			"/>
			<polygon class="st13" points="242.61,133.79 227.5,125.07 227.5,122.1 242.61,130.83 			"/>
			<polygon class="st13" points="237.09,144.83 221.99,136.11 221.99,133.14 237.09,141.86 			"/>
			<polygon class="st9" points="227.5,146.41 221.99,143.22 221.99,140.25 227.5,143.44 			"/>
			<polygon class="st9" points="246.69,157.49 232.58,149.34 232.58,146.37 246.69,154.52 			"/>
			<polygon class="st9" points="259.6,164.94 254.33,161.9 254.33,158.93 259.6,161.97 			"/>
			<polygon class="st15" points="251.39,160.2 248.76,158.68 248.76,155.72 251.39,157.23 			"/>
			<polygon class="st15" points="231.44,148.68 228.81,147.17 228.81,144.2 231.44,145.72 			"/>
			<polygon class="st9" points="227.5,153.52 221.99,150.33 221.99,147.37 227.5,150.55 			"/>
			<polygon class="st9" points="225.49,159.47 221.99,157.44 221.99,154.49 225.49,156.51 			"/>
			<polygon class="st13" points="252.34,174.97 231.06,162.68 231.06,159.72 252.34,172.01 			"/>
			<polygon class="st13" points="239.63,175.1 221.94,164.87 221.94,161.92 239.63,172.13 			"/>
			<polygon class="st9" points="253.08,182.85 241.91,176.4 241.91,173.44 253.08,179.88 			"/>
			<polygon class="st9" points="301.03,210.55 287.38,202.65 287.38,199.7 301.03,207.57 			"/>
			<polygon class="st15" points="260.48,187.12 255.92,184.49 255.92,181.54 260.48,184.16 			"/>
			<polygon class="st16" points="283.8,200.59 266.16,190.4 266.16,187.44 283.8,197.63 			"/>
			<polygon class="st9" points="275.61,188.41 254.33,176.12 254.33,173.16 275.61,185.44 			"/>
			<polygon class="st9" points="246.69,164.6 232.58,156.45 232.58,153.49 246.69,161.64 			"/>
			<polygon class="st9" points="259.6,172.05 254.33,169.01 254.33,166.04 259.6,169.08 			"/>
			<polygon class="st15" points="251.39,167.32 248.76,165.79 248.76,162.83 251.39,164.35 			"/>
			<polygon class="st15" points="231.44,155.79 228.81,154.28 228.81,151.31 231.44,152.83 			"/>
			<polygon class="st15" points="229.54,161.81 226.9,160.28 226.9,157.33 229.54,158.84 			"/>
			<polygon class="st9" points="254.52,154.9 239.41,146.17 239.41,143.21 254.52,151.93 			"/>
			<polygon class="st9" points="268.44,162.93 258.87,157.4 258.87,154.43 268.45,159.97 			"/>
			<polygon class="st9" points="285.19,172.61 270.78,164.27 270.78,161.32 285.19,169.64 			"/>
			<polygon class="st9" points="298.55,180.31 290,175.38 290,172.41 298.55,177.35 			"/>
			<polygon class="st9" points="262.07,145.02 246.96,136.3 246.96,133.33 262.07,142.05 			"/>
			<polygon class="st15" points="219.96,127.81 218.66,127.05 218.66,124.1 219.96,124.84 			"/>
			<polygon class="st15" points="219.96,170.94 218.66,170.19 218.66,167.23 219.96,167.98 			"/>
		</g>
	</g>
	<g>
		<polygon class="st9" points="361.99,118 358.85,119.83 232.4,46.81 235.56,45 		"/>
		<polygon class="st10" points="361.99,129.23 358.85,131.04 358.85,119.83 361.99,118 		"/>
		<polygon class="st11" points="361.99,227.08 358.85,228.89 358.85,131.04 361.99,129.23 		"/>
		<polygon class="st12" points="358.85,119.83 232.4,46.81 232.4,58.04 358.85,131.04 		"/>
		<polygon class="st13" points="232.4,155.88 358.85,228.89 358.85,131.04 232.4,58.04 		"/>
		<polygon class="st14" points="239.05,69.26 239.05,153.1 352.21,218.47 352.21,134.64 		"/>
		<g>
			<polygon class="st13" points="265.3,95.53 244.69,83.62 244.69,80.67 265.3,92.56 			"/>
			<polygon class="st9" points="258.55,98.75 244.69,90.73 244.69,87.78 258.55,95.77 			"/>
			<polygon class="st15" points="251.62,101.85 244.69,97.86 244.69,94.89 251.62,98.88 			"/>
			<polygon class="st9" points="290.49,124.29 253.46,102.91 253.46,99.94 290.49,121.33 			"/>
			<polygon class="st13" points="274.1,129.4 247.65,114.12 247.65,111.16 274.1,126.43 			"/>
			<polygon class="st13" points="267.45,132.68 255.98,126.05 255.98,123.08 267.45,129.71 			"/>
			<polygon class="st13" points="272.49,150.15 251.62,138.1 251.62,135.13 272.49,147.17 			"/>
			<polygon class="st13" points="279.72,161.43 251.62,145.21 251.62,142.25 279.72,158.47 			"/>
			<polygon class="st9" points="257.62,155.79 251.62,152.33 251.62,149.36 257.62,152.82 			"/>
			<polygon class="st13" points="293.91,176.74 261.71,158.15 261.71,155.19 293.91,173.78 			"/>
			<polygon class="st9" points="295.37,170.48 281.74,162.61 281.74,159.64 295.37,167.51 			"/>
			<polygon class="st15" points="304.76,175.88 298.92,172.52 298.92,169.56 304.76,172.92 			"/>
			<polygon class="st15" points="303.08,182.04 297.24,178.67 297.24,175.7 303.08,179.07 			"/>
			<polygon class="st15" points="314.23,181.35 308.39,177.98 308.38,175.03 314.23,178.4 			"/>
			<polygon class="st9" points="346.56,197.07 317.39,180.21 317.39,183.18 346.56,200.03 			"/>
			<polygon class="st16" points="328.71,193.88 306.38,180.97 306.38,183.94 328.71,196.84 			"/>
			<polygon class="st15" points="285,157.38 274.7,151.43 274.7,148.46 285,154.41 			"/>
			<polygon class="st9" points="305.74,169.33 288.75,159.53 288.75,156.57 305.74,166.37 			"/>
			<polygon class="st16" points="346.56,178.34 271.01,134.73 271.01,131.76 346.56,175.38 			"/>
			<polygon class="st15" points="252.61,124.1 247.65,121.24 247.65,118.27 252.61,121.13 			"/>
			<polygon class="st15" points="246.16,105.9 244.86,105.15 244.86,102.19 246.16,102.93 			"/>
			<polygon class="st15" points="249.64,129.83 248.34,129.1 248.34,126.13 249.64,126.87 			"/>
			<polygon class="st15" points="279.72,132.64 275.29,130.08 275.29,127.12 279.72,129.68 			"/>
			<polygon class="st15" points="262.03,100.75 260.38,99.8 260.38,96.83 262.03,97.78 			"/>
			<polygon class="st15" points="267.45,103.88 264.1,101.94 264.1,98.97 267.45,100.91 			"/>
			<polygon class="st15" points="272.49,99.67 266.16,96.02 266.16,93.06 272.49,96.71 			"/>
		</g>
	</g>
	<g>
		<polygon class="st9" points="280.37,158.08 277.17,159.94 169.63,97.89 172.83,96.04 		"/>
		<polygon class="st10" points="280.37,169.48 277.17,171.33 277.17,159.94 280.37,158.08 		"/>
		<polygon class="st11" points="280.37,286.24 277.17,288.09 277.17,171.33 280.37,169.48 		"/>
		<polygon class="st12" points="277.17,159.94 169.63,97.89 169.63,109.28 277.17,171.33 		"/>
		<polygon class="st13" points="169.63,226.05 277.17,288.09 277.17,171.33 169.63,109.28 		"/>
		<polygon class="st11" points="270.43,274.44 270.43,277.51 176.37,223.22 176.37,120.68 179.03,122.22 179.03,221.67 		"/>
		<polygon class="st17" points="270.43,174.98 270.43,274.44 179.03,221.67 179.03,122.22 		"/>
		<g>
			<g>
				<path class="st18" d="M189.43,135.25l-2.21,1.27v6.45l2.21,3.83l2.44,1.39l2.21-1.27v-6.45l-2.21-3.82L189.43,135.25z
					 M192.72,145.5l-1.41,0.81l-1.31-0.76l-1.41-2.44v-5.16l1.41-0.81l1.31,0.76l1.41,2.45V145.5z"/>
				<path class="st18" d="M206.84,145.3l-2.2,1.27v6.45l2.2,3.83l2.46,1.4l2.2-1.27v-6.45l-2.2-3.82L206.84,145.3z M210.14,155.54
					l-1.42,0.82l-1.31-0.77l-1.42-2.43v-5.15l1.42-0.81l1.31,0.77l1.42,2.43V155.54z"/>
				<path class="st18" d="M216.32,150.77l-2.22,1.27v6.45l2.22,3.82l2.44,1.42l2.21-1.28v-6.45l-2.21-3.83L216.32,150.77z
					 M219.6,161.01l-1.41,0.81l-1.31-0.75l-1.41-2.46v-5.14l1.41-0.81l1.31,0.75l1.41,2.45V161.01z"/>
				<path class="st18" d="M229.75,158.53l-2.21,1.27v6.46l2.21,3.81l2.45,1.42l2.21-1.28v-6.46l-2.21-3.81L229.75,158.53z
					 M233.04,168.77l-1.4,0.81l-1.32-0.76l-1.41-2.44v-5.16l1.41-0.8l1.32,0.75l1.4,2.45V168.77z"/>
				<polygon class="st18" points="196.7,150.98 198.06,151.77 198.06,140.23 196.7,139.44 				"/>
				<polygon class="st18" points="200.67,153.28 202.03,154.07 202.03,142.52 200.67,141.73 				"/>
				<polygon class="st18" points="223.58,166.51 224.94,167.29 224.94,155.74 223.58,154.96 				"/>
				<polygon class="st18" points="237.02,162.72 237.02,174.26 238.38,175.05 238.38,163.5 				"/>
				<polygon class="st18" points="183.25,143.23 184.62,144.01 184.62,132.46 183.25,131.68 				"/>
				<path class="st18" d="M243.21,166.29l-2.22,1.27v6.45l2.22,3.83l2.43,1.41l2.22-1.29v-6.45l-2.22-3.83L243.21,166.29z
					 M246.49,176.54l-1.41,0.81l-1.32-0.76l-1.42-2.44v-5.16l1.42-0.81l1.32,0.76l1.41,2.44V176.54z"/>
				<path class="st18" d="M260.6,176.34l-2.21,1.27v6.46l2.21,3.82l2.45,1.41l2.2-1.27v-6.45l-2.2-3.82L260.6,176.34z
					 M263.89,186.59l-1.41,0.81l-1.32-0.77l-1.4-2.43v-5.15l1.4-0.82l1.32,0.76l1.41,2.45V186.59z"/>
				<polygon class="st18" points="250.46,182.03 251.83,182.82 251.83,171.26 250.46,170.48 				"/>
				<polygon class="st18" points="254.43,184.32 255.79,185.1 255.79,173.56 254.43,172.76 				"/>
			</g>
			<g>
				<path class="st18" d="M189.43,191.47l-2.21,1.27v6.45l2.21,3.83l2.44,1.4l2.21-1.27v-6.44l-2.21-3.83L189.43,191.47z
					 M192.72,201.72l-1.41,0.82l-1.31-0.76l-1.41-2.45v-5.15l1.41-0.82l1.31,0.77l1.41,2.43V201.72z"/>
				<path class="st18" d="M206.84,201.53l-2.2,1.27v6.45l2.2,3.82l2.46,1.42l2.2-1.29v-6.45l-2.2-3.82L206.84,201.53z
					 M210.14,211.78l-1.42,0.81l-1.31-0.76l-1.42-2.44v-5.16l1.42-0.81l1.31,0.76l1.42,2.45V211.78z"/>
				<path class="st18" d="M216.32,207l-2.22,1.27v6.45l2.22,3.82l2.44,1.41l2.21-1.27v-6.45l-2.21-3.82L216.32,207z M219.6,217.25
					l-1.41,0.81l-1.31-0.76l-1.41-2.44v-5.16l1.41-0.81l1.31,0.76l1.41,2.44V217.25z"/>
				<path class="st18" d="M229.75,214.75l-2.21,1.27v6.45l2.21,3.82l2.45,1.42l2.21-1.27v-6.46l-2.21-3.82L229.75,214.75z
					 M233.04,225.01l-1.4,0.8l-1.32-0.75l-1.41-2.43v-5.16l1.41-0.82l1.32,0.76l1.4,2.44V225.01z"/>
				<polygon class="st18" points="196.7,207.21 198.06,208 198.06,196.45 196.7,195.67 				"/>
				<polygon class="st18" points="200.67,209.51 202.03,210.29 202.03,198.75 200.67,197.96 				"/>
				<polygon class="st18" points="223.58,222.74 224.94,223.52 224.94,211.97 223.58,211.19 				"/>
				<polygon class="st18" points="237.02,218.95 237.02,230.5 238.38,231.28 238.38,219.73 				"/>
				<polygon class="st18" points="183.25,199.45 184.62,200.25 184.62,188.69 183.25,187.91 				"/>
				<path class="st18" d="M243.21,222.52l-2.22,1.27v6.45l2.22,3.82l2.43,1.41l2.22-1.27v-6.45l-2.22-3.82L243.21,222.52z
					 M246.49,232.76l-1.41,0.81l-1.32-0.77l-1.42-2.43v-5.15l1.42-0.81l1.32,0.75l1.41,2.45V232.76z"/>
				<path class="st18" d="M260.6,232.56l-2.21,1.29v6.45l2.21,3.82l2.45,1.42l2.2-1.29v-6.45l-2.2-3.82L260.6,232.56z
					 M263.89,242.82l-1.41,0.8l-1.32-0.75l-1.4-2.44v-5.16l1.4-0.81l1.32,0.76l1.41,2.44V242.82z"/>
				<polygon class="st18" points="250.46,238.26 251.83,239.04 251.83,227.49 250.46,226.7 				"/>
				<polygon class="st18" points="254.43,240.54 255.79,241.34 255.79,229.78 254.43,229 				"/>
			</g>
			<g>
				<path class="st18" d="M193.41,156.3l-2.22,1.29v6.45l2.22,3.82l2.44,1.41l2.21-1.27v-6.45l-2.21-3.83L193.41,156.3z
					 M196.69,166.54l-1.41,0.82l-1.32-0.77l-1.41-2.43v-5.16l1.41-0.82l1.32,0.77l1.41,2.45V166.54z"/>
				<polygon class="st18" points="183.25,161.99 184.62,162.77 184.62,151.22 183.25,150.43 				"/>
				<polygon class="st18" points="187.22,164.27 188.59,165.06 188.59,153.52 187.22,152.73 				"/>
				<path class="st18" d="M206.84,164.06l-2.2,1.26v6.46l2.2,3.82l2.46,1.41l2.2-1.28v-6.45l-2.2-3.83L206.84,164.06z M210.14,174.3
					l-1.42,0.81l-1.31-0.77l-1.42-2.43v-5.15l1.42-0.82l1.31,0.77l1.42,2.44V174.3z"/>
				<path class="st18" d="M224.25,174.1l-2.2,1.29v6.45l2.2,3.82l2.45,1.41l2.21-1.28v-6.45l-2.21-3.82L224.25,174.1z
					 M227.54,184.36l-1.41,0.81l-1.31-0.76l-1.42-2.44v-5.15l1.42-0.81l1.31,0.75l1.41,2.45V184.36z"/>
				<path class="st18" d="M233.73,179.57l-2.2,1.28v6.45l2.2,3.83l2.45,1.41l2.21-1.28v-6.45l-2.21-3.82L233.73,179.57z
					 M237.02,189.83l-1.41,0.81l-1.33-0.76l-1.4-2.45v-5.14l1.4-0.81l1.33,0.75l1.41,2.45V189.83z"/>
				<path class="st18" d="M247.17,187.34l-2.21,1.27v6.45l2.21,3.83l2.45,1.41l2.21-1.27v-6.45l-2.21-3.83L247.17,187.34z
					 M250.46,197.58l-1.4,0.81l-1.32-0.75l-1.42-2.45v-5.14l1.42-0.81l1.32,0.76l1.4,2.44V197.58z"/>
				<polygon class="st18" points="214.1,179.8 215.47,180.59 215.47,169.04 214.1,168.25 				"/>
				<polygon class="st18" points="218.08,182.1 219.44,182.87 219.44,171.33 218.08,170.54 				"/>
				<polygon class="st18" points="240.99,195.32 242.35,196.11 242.35,184.57 240.99,183.78 				"/>
				<polygon class="st18" points="254.43,203.07 255.79,203.87 255.79,192.32 254.43,191.53 				"/>
				<polygon class="st18" points="200.67,172.04 202.03,172.83 202.03,161.27 200.67,160.49 				"/>
				<path class="st18" d="M263.06,196.51l-2.45-1.42l-2.21,1.28v6.46l2.21,3.82l2.45,1.41l2.2-1.27v-6.46L263.06,196.51z
					 M263.89,205.35l-1.41,0.8l-1.32-0.74l-1.4-2.46v-5.14l1.4-0.82l1.32,0.77l1.41,2.45V205.35z"/>
			</g>
			<g>
				<path class="st18" d="M193.41,212.49l-2.22,1.27v6.46l2.22,3.82l2.44,1.41l2.21-1.28v-6.46l-2.21-3.81L193.41,212.49z
					 M196.69,222.74l-1.41,0.81l-1.32-0.77l-1.41-2.43v-5.16l1.41-0.81l1.32,0.75l1.41,2.45V222.74z"/>
				<polygon class="st18" points="183.25,218.18 184.62,218.97 184.62,207.41 183.25,206.63 				"/>
				<polygon class="st18" points="187.22,220.48 188.59,221.27 188.59,209.71 187.22,208.93 				"/>
				<path class="st18" d="M206.84,220.25l-2.2,1.27v6.45l2.2,3.82l2.46,1.42l2.2-1.29v-6.45l-2.2-3.82L206.84,220.25z M210.14,230.5
					l-1.42,0.81l-1.31-0.75l-1.42-2.45v-5.15l1.42-0.81l1.31,0.75l1.42,2.46V230.5z"/>
				<path class="st18" d="M224.25,230.31l-2.2,1.27v6.45l2.2,3.82l2.45,1.42l2.21-1.29v-6.45l-2.21-3.81L224.25,230.31z
					 M227.54,240.56l-1.41,0.81l-1.31-0.75l-1.42-2.45v-5.14l1.42-0.82l1.31,0.77l1.41,2.43V240.56z"/>
				<path class="st18" d="M233.73,235.78l-2.2,1.27v6.45l2.2,3.82l2.45,1.41l2.21-1.26V241l-2.21-3.82L233.73,235.78z
					 M237.02,246.02l-1.41,0.81l-1.33-0.75l-1.4-2.45v-5.15l1.4-0.81l1.33,0.77l1.41,2.43V246.02z"/>
				<path class="st18" d="M247.17,243.53l-2.21,1.27v6.45l2.21,3.84l2.45,1.41l2.21-1.28v-6.45l-2.21-3.82L247.17,243.53z
					 M250.46,253.78l-1.4,0.82l-1.32-0.75l-1.42-2.45v-5.15l1.42-0.82l1.32,0.76l1.4,2.45V253.78z"/>
				<polygon class="st18" points="214.1,235.99 215.47,236.78 215.47,225.24 214.1,224.45 				"/>
				<polygon class="st18" points="218.08,238.29 219.44,239.08 219.44,227.52 218.08,226.73 				"/>
				<polygon class="st18" points="240.99,251.52 242.35,252.3 242.35,240.76 240.99,239.97 				"/>
				<polygon class="st18" points="254.43,259.27 255.79,260.07 255.79,248.52 254.43,247.72 				"/>
				<polygon class="st18" points="200.67,228.23 202.03,229.02 202.03,217.47 200.67,216.68 				"/>
				<path class="st18" d="M263.06,252.71l-2.45-1.41l-2.21,1.27v6.46l2.21,3.82l2.45,1.42l2.2-1.29v-6.45L263.06,252.71z
					 M263.89,261.54l-1.41,0.82l-1.32-0.77l-1.4-2.43V254l1.4-0.81l1.32,0.75l1.41,2.45V261.54z"/>
			</g>
			<g>
				<path class="st18" d="M185.46,170.44l-2.21,1.28v6.45l2.21,3.83l2.44,1.41l2.22-1.28v-6.45l-2.22-3.83L185.46,170.44z
					 M188.75,180.69l-1.41,0.81l-1.32-0.76l-1.41-2.44v-5.16l1.41-0.81l1.32,0.76l1.41,2.45V180.69z"/>
				<polygon class="st18" points="192.72,186.18 194.08,186.98 194.08,175.43 192.72,174.63 				"/>
				<polygon class="st18" points="196.7,188.47 198.06,189.27 198.06,177.71 196.7,176.92 				"/>
				<polygon class="st18" points="200.67,190.77 202.03,191.55 202.03,180 200.67,179.22 				"/>
				<polygon class="st18" points="204.64,193.07 205.99,193.85 205.99,182.3 204.64,181.51 				"/>
				<path class="st18" d="M210.82,185.07l-2.21,1.29v6.43l2.21,3.84l2.44,1.41l2.21-1.28v-6.46l-2.21-3.82L210.82,185.07z
					 M214.1,195.33l-1.41,0.81l-1.31-0.76l-1.41-2.44v-5.16l1.41-0.81l1.31,0.76l1.41,2.44V195.33z"/>
				<path class="st18" d="M224.25,192.84l-2.2,1.28v6.45l2.2,3.83l2.45,1.41l2.21-1.28v-6.45l-2.21-3.82L224.25,192.84z
					 M227.54,203.09l-1.41,0.81l-1.31-0.75l-1.42-2.45v-5.15l1.42-0.81l1.31,0.75l1.41,2.46V203.09z"/>
				<polygon class="st18" points="231.52,208.58 232.88,209.36 232.88,197.82 231.52,197.03 				"/>
				<polygon class="st18" points="235.49,210.88 236.85,211.65 236.85,200.11 235.49,199.32 				"/>
				<polygon class="st18" points="258.39,224.11 259.76,224.89 259.76,213.33 258.39,212.55 				"/>
				<polygon class="st18" points="262.37,214.84 262.37,226.4 263.72,227.19 263.72,215.63 				"/>
				<polygon class="st18" points="218.08,200.82 219.44,201.61 219.44,190.05 218.08,189.28 				"/>
				<path class="st18" d="M241.67,202.9l-2.21,1.27v6.45l2.21,3.82l2.44,1.42l2.22-1.27v-6.45l-2.22-3.83L241.67,202.9z
					 M244.97,213.14l-1.41,0.82l-1.32-0.77l-1.41-2.44v-5.16l1.41-0.81l1.32,0.77l1.41,2.43V213.14z"/>
				<path class="st18" d="M251.15,208.36l-2.22,1.27v6.45l2.22,3.82l2.44,1.42l2.2-1.27v-6.46l-2.2-3.82L251.15,208.36z
					 M254.43,218.61l-1.41,0.82l-1.32-0.77l-1.41-2.44v-5.16l1.41-0.81l1.32,0.76l1.41,2.44V218.61z"/>
			</g>
		</g>
	</g>
	<g>
		<polygon class="st19" points="214.46,312.53 214.46,301.22 200.59,293.21 180.98,293.21 167.11,301.22 167.11,312.53 
			180.98,320.53 200.59,320.53 		"/>
		<polygon class="st20" points="192.77,185.01 198.79,178.17 202.65,178.97 204.41,178.9 207.49,180.03 208.49,180.03 
			208.49,178.72 205.9,176.61 206.08,175.58 208.32,175.31 209.32,172.7 208.81,171.46 212.41,167.66 212.27,166.39 206.61,169.98 
			202.08,169.71 197.52,173.45 189.21,179.45 188.21,181.61 189.22,184.95 191.04,185.79 		"/>
		<polygon class="st20" points="189.22,175.58 188.38,180.74 186.85,182.19 180.35,180.69 177.1,178.54 176.52,175.91 
			177.02,172.47 178.37,169.37 183.34,168.52 190.39,171.87 		"/>
		<polygon class="st21" points="175.01,178.43 171.84,176.61 166.74,176.61 162.88,178.86 162.53,185.09 164.72,189.79 
			169.53,188.66 		"/>
		<polygon class="st22" points="170.26,309.16 170.26,310.03 171.72,312.26 175.3,312.26 177.45,308.34 177.92,305.64 
			181.32,301.66 182.03,297.91 182.03,297.03 179.1,296.22 		"/>
		<polygon class="st22" points="201.94,302.26 205.97,303.5 212.49,304.44 212.49,305.33 211.7,308.38 207.62,311.2 199.01,311.74 
			197.79,312.62 192.52,313.26 189.88,311.81 189.88,310.93 		"/>
		<polygon class="st23" points="170.66,303.53 170.26,309.16 171.72,311.38 175.3,311.38 177.45,307.46 177.92,304.76 
			181.32,300.78 182.03,297.03 181.38,295.87 179.1,295.34 		"/>
		<polygon class="st23" points="201.94,301.38 205.97,302.62 210.65,302.42 212.49,304.44 211.7,307.51 207.62,310.32 
			199.01,310.87 197.79,311.74 192.52,312.4 189.88,310.93 189.88,303.87 		"/>
		<polygon class="st24" points="170.34,235.84 171.7,267.27 168.68,275.87 168.68,300.8 171.26,304.44 176.43,304.31 179.58,300.55 
			182.5,272 187.12,250.5 188.12,241.56 		"/>
		<polygon class="st25" points="173.99,216.82 169.81,233.52 170.95,238.53 185.37,245.27 191.41,270.68 189.22,279.91 
			188.84,303.65 193.08,306.61 200.63,305.88 203.03,302.05 203.35,270.15 204.43,255.03 203.27,226.49 202.04,222.27 		"/>
		<polygon class="st26" points="175.52,212.61 173.99,216.82 176.62,219.76 187.73,224.74 199.41,224.74 202.04,222.27 
			202.26,215.95 		"/>
		<polygon class="st13" points="174.77,178.17 168.88,178.17 165.14,183.88 164.71,190.82 168.69,202.01 173.49,209.56 
			173.49,212.03 177.95,217.07 188.21,221.35 199.44,221.35 202.33,218.98 203.66,215.15 202.33,202.19 202.33,195.73 200.47,192.1 
			197.66,188.17 191.04,183.88 		"/>
		<polygon class="st20" points="234.3,204.23 218.48,216.32 212.58,217.65 207.99,217.32 203.79,213.19 203.94,209.03 
			210.77,205.47 213.06,208.37 216.06,205.98 232.81,200.07 		"/>
		<polygon class="st21" points="195.78,190.55 191.7,193.21 190.39,196.99 191.61,201.17 202.37,213.3 207.23,212.93 211.19,209.85 
			211.6,204.89 202.9,193.4 199.9,190.86 		"/>
		<polygon class="st27" points="213.06,208.37 213.27,211.45 214.34,211.02 		"/>
		<polygon class="st20" points="229.76,201.12 232.37,192.21 235.46,189.96 238.4,188.61 241.37,191.1 242.3,194.12 238.84,196.81 
			237.52,202.47 234.3,204.23 		"/>
		<polygon class="st21" points="174.77,178.17 178.72,182.3 185.31,183.62 191.04,183.88 191.04,179.23 186.15,179.84 
			179.51,178.17 176.09,175.58 		"/>
		<polygon class="st20" points="193.77,157.96 195.54,163.08 194.75,164.81 194.99,168.17 193.32,174.36 191.08,175.58 
			189.22,175.58 187.27,172.7 185.24,168.85 188.98,157.19 		"/>
		<polygon class="st4" points="184.55,152.74 190.73,153.32 190.26,153.68 194.22,156.45 194.75,157.93 193.8,157.34 193.57,162.61 
			192.26,164.97 192.26,167.33 191.74,168.22 190.14,167.03 188.19,169.81 186.74,174.36 185.09,175.31 181.57,175.31 
			179.62,174.25 178.37,172.83 178.37,173.65 176.4,171.94 174.77,166.56 174.77,160.48 176.13,157.52 174.77,157.4 176.54,156.92 
			175.83,155.57 177.14,156.28 180.09,154.03 		"/>
	</g>
</g>
</svg>
