<svg width="236.7875px" height="448.4px" xmlns="http://www.w3.org/2000/svg" viewBox="131.60625 -149.2 236.7875 448.4" style="background: rgba(255, 255, 255, 0);" preserveAspectRatio="xMidYMid"><defs><linearGradient id="editing-outline-gradient" x1="-0.41354545764260087" x2="1.4135454576426008" y1="0.09326335692419985" y2="0.9067366430758002"><stop offset="0" stop-color="#61a2b1"></stop><stop offset="1" stop-color="#61a2b1"></stop></linearGradient><filter id="editing-outline" x="-100%" y="-100%" width="300%" height="300%"><feMorphology in="SourceGraphic" operator="dilate" radius="1" result="outline"></feMorphology><feComposite operator="out" in="outline" in2="SourceAlpha"></feComposite></filter></defs><g filter="url(#editing-outline)"><g transform="translate(169.70000648498535, 136.79999923706055)"><path d="M96.80-29.80L96.80-29.80L96.80-29.80Q94.20-27.60 90.10-26.30L90.10-26.30L90.10-26.30Q86-25 80.60-25L80.60-25L80.60-25Q73.40-25 68.70-26.80L68.70-26.80L68.70-26.80Q64-28.60 62.60-33L62.60-33L62.60-33Q57-50.60 53.40-61.50L53.40-61.50L53.40-61.50Q49.80-72.40 47.80-80.60L47.80-80.60L46.80-80.60L46.80-80.60Q46.20-68.80 45.90-59.10L45.90-59.10L45.90-59.10Q45.60-49.40 45.50-40.20L45.50-40.20L45.50-40.20Q45.40-31 45.10-21.60L45.10-21.60L45.10-21.60Q44.80-12.20 44.20-0.80L44.20-0.80L44.20-0.80Q41.60 0.20 37.40 0.90L37.40 0.90L37.40 0.90Q33.20 1.60 29 1.60L29 1.60L29 1.60Q20.20 1.60 15.30-1.20L15.30-1.20L15.30-1.20Q10.40-4 10.40-11.40L10.40-11.40L16.20-113.40L16.20-113.40Q17.80-116 23.20-119L23.20-119L23.20-119Q28.60-122 38.40-122L38.40-122L38.40-122Q49-122 55-118.70L55-118.70L55-118.70Q61-115.40 63.80-108L63.80-108L63.80-108Q65.60-103.20 67.70-97L67.70-97L67.70-97Q69.80-90.80 71.90-84.20L71.90-84.20L71.90-84.20Q74-77.60 76-71.10L76-71.10L76-71.10Q78-64.60 79.60-59.40L79.60-59.40L80.60-59.40L80.60-59.40Q85.40-76.20 90.20-91.90L90.20-91.90L90.20-91.90Q95-107.60 99-118.20L99-118.20L99-118.20Q102-119.80 106.70-120.90L106.70-120.90L106.70-120.90Q111.40-122 117.20-122L117.20-122L117.20-122Q127-122 133.20-119.10L133.20-119.10L133.20-119.10Q139.40-116.20 140.40-110.80L140.40-110.80L140.40-110.80Q141.20-106.80 142.10-98.50L142.10-98.50L142.10-98.50Q143-90.20 144-79.80L144-79.80L144-79.80Q145-69.40 146-57.80L146-57.80L146-57.80Q147-46.20 147.90-35.50L147.90-35.50L147.90-35.50Q148.80-24.80 149.40-15.90L149.40-15.90L149.40-15.90Q150-7 150.20-2.20L150.20-2.20L150.20-2.20Q146.80-0.20 143.10 0.70L143.10 0.70L143.10 0.70Q139.40 1.60 133.60 1.60L133.60 1.60L133.60 1.60Q126 1.60 120.80-1L120.80-1L120.80-1Q115.60-3.60 115.20-11.20L115.20-11.20L115.20-11.20Q114-33 113.70-50.40L113.70-50.40L113.70-50.40Q113.40-67.80 112.80-79.60L112.80-79.60L111.80-79.60L111.80-79.60Q109.80-71.80 106-60L106-60L106-60Q102.20-48.20 96.80-29.80Z" fill="url(#editing-outline-gradient)"></path></g></g><style>text {
  font-size: 64px;
  font-family: Arial Black;
  dominant-baseline: central;
  text-anchor: middle;
}</style></svg>